<?xml version="1.0" encoding="utf-8"?>
<!-- Generator: Adobe Illustrator 27.5.0, SVG Export Plug-In . SVG Version: 6.00 Build 0)  -->
<svg version="1.1" xmlns="http://www.w3.org/2000/svg" xmlns:xlink="http://www.w3.org/1999/xlink" x="0px" y="0px"
	 viewBox="0 0 500 500" style="enable-background:new 0 0 500 500;" xml:space="preserve">
<g id="OBJECTS_1_">
	<g>
		<linearGradient id="SVGID_1_" gradientUnits="userSpaceOnUse" x1="108" y1="233.0669" x2="135.5376" y2="233.0669">
			<stop  offset="0" style="stop-color:#00A79D"/>
			<stop  offset="0.9932" style="stop-color:#2F7B9D"/>
		</linearGradient>
		<path style="fill:url(#SVGID_1_);" d="M125.538,223.067H118c-5.523,0-10,4.477-10,10c0,5.523,4.477,10,10,10h7.538
			c5.523,0,10-4.477,10-10C135.538,227.544,131.06,223.067,125.538,223.067z"/>
		
			<linearGradient id="SVGID_00000034794364196101617510000011136297958143288506_" gradientUnits="userSpaceOnUse" x1="101" y1="221.945" x2="328.7736" y2="221.945">
			<stop  offset="0" style="stop-color:#00A79D"/>
			<stop  offset="0.9932" style="stop-color:#2F7B9D"/>
		</linearGradient>
		<path style="fill:url(#SVGID_00000034794364196101617510000011136297958143288506_);" d="M325.89,201.08l-0.97-32.97l-0.7-23.69
			c-0.12-4.13-3.51-7.42-7.64-7.42H183.42c-3.66,0-6.74,2.59-7.47,6.06h-64.611c-5.332,0-9.984,4.03-10.319,9.352
			c-0.366,5.825,4.245,10.648,9.98,10.648h8.77l71.9-0.08c5.52,0,10,4.48,10,10c0,5.52-4.48,10-10,10l-50-0.09
			c-0.45,0-0.89,0.03-1.32,0.09c-4.9,0.64-8.68,4.84-8.68,9.91c0,5.53,4.47,10,10,10l37.39,0.15c5.53,0,10,4.47,10,10
			c0,5.52-4.47,10-10,10l-27.394,0.027c-5.743,0-10.355,4.841-9.978,10.665c0.344,5.315,4.995,9.335,10.321,9.335l16.257-0.037
			c5.333-0.012,9.994,3.991,10.376,9.31c0.018,0.255,0.028,0.508,0.028,0.76c0,2.498-0.916,4.78-2.43,6.531
			c-2.555,2.956-4.046,6.682-4.161,10.588l-0.85,28.801c-0.13,4.31,3.33,7.87,7.64,7.87h142.26c4.31,0,7.77-3.56,7.64-7.87
			L325.89,201.08z"/>
	</g>
	<g>
		<path style="fill:#C95E5E;" d="M357.606,169.364L325.89,201.08l-0.97-32.97l15.716-15.716c4.69-4.69,12.29-4.69,16.97,0
			C362.296,157.074,362.296,164.674,357.606,169.364z"/>
		<path style="fill:#FFFFFF;" d="M325.89,201.08l-62.54,62.54c-2.35,2.35-5.42,3.52-8.49,3.52c-3.07,0-6.14-1.17-8.48-3.52
			l-33.2-33.19c-4.68-4.69-4.68-12.28,0-16.97c4.69-4.69,12.29-4.69,16.97,0l24.71,24.71l70.06-70.06L325.89,201.08z"/>
	</g>
	<text transform="matrix(1 0 0 1 96.0811 379.5851)" style="fill:#C95E5E; font-family:'Bungee-Regular'; font-size:52px;">Shop Logo</text>
	<g>
		<text transform="matrix(1 0 0 1 173.8408 413.7734)" style="fill:#2C7E9D; font-family:'Roboto-Regular'; font-size:29.2068px;">your slogan</text>
	</g>
	<path style="fill:#C95E5E;" d="M249.282,80.084c-6.734,0-13.159,1.345-19.021,3.78c-18.345,7.62-29.981,25.915-29.981,45.779
		l15.322-0.218c0-18.13,14.058-33.531,32.171-34.308c0.501-0.021,1.004-0.032,1.51-0.032c0.506,0,1.009,0.011,1.51,0.032
		c18.113,0.778,32.171,16.179,32.171,34.308l15.322,0.218c0-19.864-11.637-38.16-29.982-45.779
		C262.442,81.428,256.017,80.084,249.282,80.084z"/>
</g>
</svg>
